<svg id="Layer_1" data-name="Layer 1" xmlns="http://www.w3.org/2000/svg" viewBox="0 0 40 40"><defs><style>.cls-1,.cls-2{fill:none;}.cls-2{stroke:#000;stroke-miterlimit:10;}</style></defs><title>hi</title><line class="cls-1" y1="33.48" x2="40" y2="33.92"/><line class="cls-2" x1="5" y1="35" x2="35" y2="35"/><line class="cls-2" x1="5" y1="35" x2="5" y2="5"/><line class="cls-2" x1="35" y1="35" x2="35" y2="5"/><line class="cls-2" x1="5" y1="5" x2="7" y2="5"/><line class="cls-2" x1="7" y1="5.01" x2="7" y2="7.01"/><line class="cls-2" x1="7" y1="7.01" x2="9" y2="7.01"/><line class="cls-2" x1="9" y1="7" x2="9" y2="5"/><line class="cls-2" x1="9" y1="5" x2="11" y2="5"/><line class="cls-2" x1="11" y1="5.01" x2="11" y2="7.01"/><line class="cls-2" x1="11" y1="7.01" x2="13" y2="7.01"/><line class="cls-2" x1="13" y1="7" x2="13" y2="5"/><line class="cls-2" x1="13" y1="5" x2="15" y2="5"/><line class="cls-2" x1="15" y1="5.02" x2="15" y2="15.02"/><line class="cls-2" x1="35" y1="5.01" x2="33" y2="5.01"/><line class="cls-2" x1="33" y1="5.02" x2="33" y2="7.02"/><line class="cls-2" x1="33" y1="7.02" x2="31" y2="7.02"/><line class="cls-2" x1="31" y1="7.02" x2="31" y2="5.02"/><line class="cls-2" x1="31" y1="5.01" x2="29" y2="5.01"/><line class="cls-2" x1="29" y1="5.02" x2="29" y2="7.02"/><line class="cls-2" x1="29" y1="7.02" x2="27" y2="7.02"/><line class="cls-2" x1="27" y1="7.02" x2="27" y2="5.02"/><line class="cls-2" x1="27" y1="5.02" x2="25" y2="5.02"/><line class="cls-2" x1="25" y1="5.02" x2="25" y2="14.99"/><line class="cls-2" x1="15" y1="14.99" x2="25" y2="14.99"/><line class="cls-2" x1="15" y1="34.99" x2="15.09" y2="25.97"/><line class="cls-2" x1="25" y1="34.99" x2="25.08" y2="25.97"/><line class="cls-2" x1="15.09" y1="25.97" x2="25.08" y2="25.97"/></svg>