<?xml version="1.0" encoding="utf-8"?>
<!-- Generator: Adobe Illustrator 22.1.0, SVG Export Plug-In . SVG Version: 6.00 Build 0)  -->
<svg version="1.1" id="Layer_1" xmlns="http://www.w3.org/2000/svg" xmlns:xlink="http://www.w3.org/1999/xlink" x="0px" y="0px"
	 viewBox="0 0 40 40" style="enable-background:new 0 0 40 40;" xml:space="preserve">
<style type="text/css">
	.st0{fill:#FFFFFF;stroke:#000000;stroke-miterlimit:10;}
</style>
<title>hi</title>
<line class="st0" x1="5" y1="35" x2="35" y2="35"/>
<line class="st0" x1="5" y1="35" x2="5" y2="5"/>
<line class="st0" x1="35" y1="35" x2="35" y2="5"/>
<line class="st0" x1="5" y1="5" x2="7" y2="5"/>
<line class="st0" x1="7" y1="5" x2="7" y2="7"/>
<line class="st0" x1="7" y1="7" x2="9" y2="7"/>
<line class="st0" x1="9" y1="7" x2="9" y2="5"/>
<line class="st0" x1="9" y1="5" x2="11" y2="5"/>
<line class="st0" x1="11" y1="5" x2="11" y2="7"/>
<line class="st0" x1="11" y1="7" x2="13" y2="7"/>
<line class="st0" x1="13" y1="7" x2="13" y2="5"/>
<line class="st0" x1="13" y1="5" x2="15" y2="5"/>
<line class="st0" x1="15" y1="5" x2="15" y2="15"/>
<line class="st0" x1="35" y1="5" x2="33" y2="5"/>
<line class="st0" x1="33" y1="5" x2="33" y2="7"/>
<line class="st0" x1="33" y1="7" x2="31" y2="7"/>
<line class="st0" x1="31" y1="7" x2="31" y2="5"/>
<line class="st0" x1="31" y1="5" x2="29" y2="5"/>
<line class="st0" x1="29" y1="5" x2="29" y2="7"/>
<line class="st0" x1="29" y1="7" x2="27" y2="7"/>
<line class="st0" x1="27" y1="7" x2="27" y2="5"/>
<line class="st0" x1="27" y1="5" x2="25" y2="5"/>
<line class="st0" x1="25" y1="5" x2="25" y2="15"/>
<line class="st0" x1="15" y1="15" x2="25" y2="15"/>
<line class="st0" x1="15" y1="35" x2="15.1" y2="26"/>
<line class="st0" x1="25" y1="35" x2="25.1" y2="26"/>
<line class="st0" x1="15.1" y1="26" x2="25.1" y2="26"/>
</svg>
