<svg id="Layer_1" data-name="Layer 1" xmlns="http://www.w3.org/2000/svg" viewBox="0 0 30.92 30.92"><defs><style>.cls-1{fill:#fff;stroke:#000;stroke-miterlimit:10;}</style></defs><title>base</title><polygon class="cls-1" points="0.5 30.42 0.5 0.5 2.42 0.5 2.42 2.5 4.5 2.5 4.5 0.5 6.58 0.5 6.58 2.5 8.5 2.5 8.5 0.5 10.5 0.5 10.5 10.52 20.58 10.52 20.58 0.5 22.5 0.5 22.5 2.5 24.42 2.5 24.42 0.5 26.5 0.5 26.5 2.5 28.5 2.5 28.5 0.5 30.42 0.5 30.42 30.42 20.58 30.42 20.58 21.42 10.5 21.42 10.5 30.42 0.5 30.42"/><rect class="cls-1" x="10.5" y="21.42" width="10.08" height="9"/></svg>