<svg id="Layer_1" data-name="Layer 1" xmlns="http://www.w3.org/2000/svg" viewBox="0 0 31 31"><defs><style>.cls-1,.cls-3{fill:#fff;}.cls-1,.cls-2,.cls-3{stroke:#000;stroke-miterlimit:10;}.cls-2{fill:none;}.cls-3{stroke-width:0.75px;}</style></defs><title>base</title><polyline class="cls-1" points="30.5 30.5 0.5 30.5 0.5 0.51 2.5 0.52 2.5 2.52 4.5 2.5 4.5 0.51 6.5 0.51 6.47 2.52 8.5 2.5 8.5 0.51 10.54 0.53 10.5 10.53 20.5 10.53 20.5 0.53 22.5 0.53 22.5 2.52 24.5 2.52 24.5 0.52 26.5 0.52 26.5 2.52 28.5 2.52 28.5 0.51 30.5 0.51 30.5 30.5"/><line class="cls-2" x1="10.5" y1="30.49" x2="10.59" y2="21.47"/><line class="cls-2" x1="20.5" y1="30.49" x2="20.58" y2="21.47"/><line class="cls-2" x1="10.59" y1="21.47" x2="20.58" y2="21.47"/><circle class="cls-3" cx="15.56" cy="15.46" r="12"/></svg>