<svg id="Layer_1" data-name="Layer 1" xmlns="http://www.w3.org/2000/svg" viewBox="0 0 31 31"><defs><style>.cls-1{fill:none;}.cls-1,.cls-2{stroke:#000;stroke-miterlimit:10;}.cls-2{fill:#fff;}</style></defs><title>defendedbase</title><line class="cls-1" x1="0.5" y1="30.5" x2="30.5" y2="30.5"/><line class="cls-1" x1="0.5" y1="30.5" x2="0.5" y2="0.5"/><line class="cls-1" x1="30.5" y1="30.5" x2="30.5" y2="0.5"/><line class="cls-1" x1="0.5" y1="0.5" x2="2.5" y2="0.5"/><line class="cls-1" x1="2.5" y1="0.51" x2="2.5" y2="2.51"/><line class="cls-1" x1="2.5" y1="2.51" x2="4.5" y2="2.51"/><line class="cls-1" x1="4.5" y1="2.5" x2="4.5" y2="0.5"/><line class="cls-1" x1="4.5" y1="0.5" x2="6.5" y2="0.5"/><line class="cls-1" x1="6.5" y1="0.51" x2="6.5" y2="2.51"/><line class="cls-1" x1="6.5" y1="2.51" x2="8.5" y2="2.51"/><line class="cls-1" x1="8.5" y1="2.5" x2="8.5" y2="0.5"/><line class="cls-1" x1="8.5" y1="0.5" x2="10.5" y2="0.5"/><line class="cls-1" x1="10.5" y1="0.52" x2="10.5" y2="10.52"/><line class="cls-1" x1="30.5" y1="0.51" x2="28.5" y2="0.51"/><line class="cls-1" x1="28.5" y1="0.52" x2="28.5" y2="2.52"/><line class="cls-1" x1="28.5" y1="2.52" x2="26.5" y2="2.52"/><line class="cls-1" x1="26.5" y1="2.52" x2="26.5" y2="0.52"/><line class="cls-1" x1="26.5" y1="0.51" x2="24.5" y2="0.51"/><line class="cls-1" x1="24.5" y1="0.52" x2="24.5" y2="2.52"/><line class="cls-1" x1="24.5" y1="2.52" x2="22.5" y2="2.52"/><line class="cls-1" x1="22.5" y1="2.52" x2="22.5" y2="0.52"/><line class="cls-1" x1="22.5" y1="0.52" x2="20.5" y2="0.52"/><line class="cls-1" x1="20.5" y1="0.52" x2="20.5" y2="10.49"/><line class="cls-1" x1="10.5" y1="10.49" x2="20.5" y2="10.49"/><line class="cls-1" x1="10.5" y1="30.49" x2="10.59" y2="21.47"/><line class="cls-1" x1="20.5" y1="30.49" x2="20.58" y2="21.47"/><line class="cls-1" x1="10.59" y1="21.47" x2="20.58" y2="21.47"/><path class="cls-2" d="M8.08,17.1A22.85,22.85,0,0,1,8.08,8H32a22.67,22.67,0,0,1,0,9.09c-1.25,6-5.79,15-12,15S9.32,23,8.08,17.1Z" transform="translate(-4.5 -4.5)"/></svg>