<svg id="Layer_1" data-name="Layer 1" xmlns="http://www.w3.org/2000/svg" viewBox="0 0 31.51 41.64"><defs><style>.cls-1{fill:#fff;}.cls-1,.cls-2{stroke:#000;stroke-miterlimit:10;}.cls-2{fill:none;}</style></defs><title>defendedshard</title><polyline class="cls-1" points="31.06 21.11 20.96 1.11 10.96 21.11 21.06 41.11"/><line class="cls-2" x1="31.06" y1="21.11" x2="21.06" y2="41.11"/><polyline class="cls-1" points="20.56 21.31 10.56 1.31 0.56 21.31 10.56 41.41"/><line class="cls-2" x1="20.56" y1="21.31" x2="10.56" y2="41.41"/><path class="cls-2" d="M4.08,16a23,23,0,0,1,0-9.08H28A22.62,22.62,0,0,1,28,16c-1.25,6-5.79,15-12,15S5.32,21.93,4.08,16Z" transform="translate(0.56 0.91)"/><path class="cls-1" d="M4.08,16.1A22.85,22.85,0,0,1,4.08,7H28a22.67,22.67,0,0,1,0,9.09c-1.25,6-5.79,15-12,15S5.32,22,4.08,16.1Z" transform="translate(0.56 0.91)"/></svg>