<svg id="Layer_1" data-name="Layer 1" xmlns="http://www.w3.org/2000/svg" viewBox="0 0 768 768"><defs><style>.cls-1{fill:#ff4136;}</style></defs><title>redglobe</title><path class="cls-1" d="M512,128c-212.08,0-384,171.92-384,384S299.92,896,512,896a385.65,385.65,0,0,0,75.81-7.49c-9.88-4.72-10.95-40.17-1.19-60.39,10.88-22.5,45-79.5,11.25-98.62s-24.37-27.75-45-49.88-12.19-25.45-13.5-31.12c-4.5-19.5,19.88-48.75,21-51.75s1.13-14.25.75-17.63S545.75,566.75,542,566.38s-5.62,6-10.88,6.37-28.12-13.87-33-17.63-7.12-12.74-13.87-19.5-7.5-1.5-18-5.62S422,513.5,396.12,503s-28.12-25.22-28.5-35.62-15.74-25.5-23-36.38-8.54-25.88-11.16-22.5,13.5,42.75,10.88,43.88-8.26-10.88-15.76-20.63,7.88-4.5-16.12-51.75,7.5-71.34,9-96,20.25,9,10.5-6.75.75-48.75-6.75-60.75S275,230,275,230c1.12-11.62,37.5-31.5,63.75-49.88S381,176,402.12,182.75s22.5,4.5,15.38-2.25,3-10.12,19.5-7.5,21,22.5,46.12,20.62,2.63,4.88,6,11.26-3.74,5.62-20.24,16.87.37,11.25,29.62,32.63,20.25-14.26,17.25-30S537.12,221,537.12,221c18,12,14.68.66,27.8,4.79S613.62,260,613.62,260c-44.62,24.38-16.5,27-9,32.62s-15.37,16.5-15.37,16.5c-9.37-9.37-10.87.38-16.87,3.76s-.38,12-.38,12c-31,4.87-24,37.5-23.62,45.37s-19.88,19.87-25.13,31.13S536.75,437,527,438.5s-19.5-36.75-72-22.5c-15.83,4.3-51,22.5-32.25,59.62s49.87-10.5,60.37-5.24-3,28.87-.74,29.24,29.62,1,31.12,33,41.62,29.26,50.25,30,37.5-23.62,41.63-24.74,20.62-15,56.62,5.62,54.38,17.62,66.75,26.25,3.75,25.87,15.37,31.5,58.13-1.87,69.76,17.25-48,115.12-66.76,125.62S719.75,778.62,701,794a605.91,605.91,0,0,1-69.75,49.12c-21.91,13-25.85,36.37-35.61,43.74C767.5,848.68,896,695.35,896,512,896,299.92,724.08,128,512,128Zm90,360.38c-5.25,1.5-16.12,11.24-42.75-4.5s-45-12.76-47.25-15.38c0,0-2.25-6.38,9.38-7.5,23.87-2.31,54,22.12,60.74,22.5s10.13-6.75,22.13-2.88S607.25,486.88,602,488.38ZM476.38,166.25c-2.62-1.9,2.16-4.09,5-7.87,1.65-2.19.43-5.82,2.49-7.88,5.62-5.62,33.37-13.5,27.94,1.88S480.5,169.25,476.38,166.25ZM543.5,215c-9.38-.38-31.44-2.71-27.38-6.75,15.85-15.75-6-20.25-19.5-21.37s-19.12-8.63-12.37-9.38,33.75.38,38.25,4.12,28.88,13.5,30.38,20.63S552.88,215.38,543.5,215Zm81.38-2.62c-7.5,6-45.24-21.53-52.5-27.76-31.5-27-48.38-18-55-22.5s-4.27-10.5,5.86-19.5,38.63,3,55.13,4.88,35.62,14.62,36,29.78S632.38,206.38,624.88,212.38Z" transform="translate(-128 -128)"/></svg>