<svg id="svg5332" xmlns="http://www.w3.org/2000/svg" viewBox="0 0 256.95 256.95"><defs><style>.cls-1{fill:#ff4136;}.cls-2{fill:none;stroke:#ff4136;stroke-miterlimit:10;stroke-width:4px;}</style></defs><title>redkeyboard</title><g id="layer1"><path id="rect21580-2" class="cls-1" d="M6.89,61.54a5.49,5.49,0,0,0-5.5,5.51v73.36a5.49,5.49,0,0,0,5.5,5.5h193.8a5.5,5.5,0,0,0,5.5-5.5V67.05a5.5,5.5,0,0,0-5.5-5.51Zm4.63,5h3.93a2.16,2.16,0,0,1,2.16,2.16V72.6a2.15,2.15,0,0,1-2.16,2.16H11.52A2.15,2.15,0,0,1,9.36,72.6V68.67A2.16,2.16,0,0,1,11.52,66.51ZM28.24,67h3.93a2.16,2.16,0,0,1,2.16,2.16V73a2.16,2.16,0,0,1-2.16,2.16H28.24A2.16,2.16,0,0,1,26.08,73V69.11A2.15,2.15,0,0,1,28.24,67Zm14.42,0h3.93a2.15,2.15,0,0,1,2.16,2.16V73a2.16,2.16,0,0,1-2.16,2.16H42.66A2.16,2.16,0,0,1,40.5,73V69.11A2.15,2.15,0,0,1,42.66,67Zm14.42,0H61a2.15,2.15,0,0,1,2.16,2.16V73A2.16,2.16,0,0,1,61,75.2H57.08A2.16,2.16,0,0,1,54.92,73V69.11A2.15,2.15,0,0,1,57.08,67ZM71.5,67h3.93a2.15,2.15,0,0,1,2.16,2.16V73a2.16,2.16,0,0,1-2.16,2.16H71.5A2.16,2.16,0,0,1,69.34,73V69.11A2.15,2.15,0,0,1,71.5,67Zm17.26,0h3.93a2.16,2.16,0,0,1,2.16,2.16V73a2.16,2.16,0,0,1-2.16,2.16H88.76A2.16,2.16,0,0,1,86.6,73V69.11A2.15,2.15,0,0,1,88.76,67Zm14.42,0h3.93a2.15,2.15,0,0,1,2.16,2.16V73a2.16,2.16,0,0,1-2.16,2.16h-3.93A2.16,2.16,0,0,1,101,73V69.11A2.15,2.15,0,0,1,103.18,67Zm14.42,0h3.93a2.15,2.15,0,0,1,2.16,2.16V73a2.16,2.16,0,0,1-2.16,2.16H117.6A2.16,2.16,0,0,1,115.44,73V69.11A2.15,2.15,0,0,1,117.6,67ZM132,67H136a2.15,2.15,0,0,1,2.16,2.16V73A2.16,2.16,0,0,1,136,75.2H132A2.16,2.16,0,0,1,129.86,73V69.11A2.15,2.15,0,0,1,132,67Zm16.39,0h3.93a2.15,2.15,0,0,1,2.16,2.16V73a2.16,2.16,0,0,1-2.16,2.16h-3.93A2.16,2.16,0,0,1,146.25,73V69.11A2.16,2.16,0,0,1,148.41,67Zm14.42,0h3.93a2.15,2.15,0,0,1,2.16,2.16V73a2.16,2.16,0,0,1-2.16,2.16h-3.93A2.16,2.16,0,0,1,160.67,73V69.11A2.16,2.16,0,0,1,162.83,67Zm14.42,0h3.93a2.16,2.16,0,0,1,2.17,2.16V73a2.17,2.17,0,0,1-2.17,2.16h-3.93A2.16,2.16,0,0,1,175.09,73V69.11A2.16,2.16,0,0,1,177.25,67Zm14.42,0h3.93a2.16,2.16,0,0,1,2.17,2.16V73a2.17,2.17,0,0,1-2.17,2.16h-3.93A2.16,2.16,0,0,1,189.51,73V69.11A2.16,2.16,0,0,1,191.67,67ZM11.52,82.06h3.93a2.15,2.15,0,0,1,2.16,2.16v3.93a2.15,2.15,0,0,1-2.16,2.16H11.52a2.15,2.15,0,0,1-2.16-2.16V84.22a2.15,2.15,0,0,1,2.16-2.16Zm12.74,0h3.93a2.16,2.16,0,0,1,2.16,2.16v3.93a2.16,2.16,0,0,1-2.16,2.16H24.26a2.16,2.16,0,0,1-2.17-2.16V84.22a2.16,2.16,0,0,1,2.17-2.16Zm13.38,0h3.93a2.15,2.15,0,0,1,2.16,2.16v3.93a2.15,2.15,0,0,1-2.16,2.16H37.64a2.15,2.15,0,0,1-2.16-2.16V84.22a2.15,2.15,0,0,1,2.16-2.16Zm13.38,0H55a2.16,2.16,0,0,1,2.16,2.16v3.93A2.16,2.16,0,0,1,55,90.31H51a2.16,2.16,0,0,1-2.16-2.16V84.22A2.16,2.16,0,0,1,51,82.06Zm13.39,0h3.93a2.15,2.15,0,0,1,2.16,2.16v3.93a2.15,2.15,0,0,1-2.16,2.16H64.41a2.15,2.15,0,0,1-2.16-2.16V84.22a2.15,2.15,0,0,1,2.16-2.16Zm13.38,0h3.93a2.15,2.15,0,0,1,2.16,2.16v3.93a2.15,2.15,0,0,1-2.16,2.16H77.79a2.16,2.16,0,0,1-2.16-2.16V84.22a2.16,2.16,0,0,1,2.16-2.16Zm13.39,0h3.93a2.16,2.16,0,0,1,2.16,2.16v3.93a2.16,2.16,0,0,1-2.16,2.16H91.18A2.15,2.15,0,0,1,89,88.15V84.22a2.15,2.15,0,0,1,2.16-2.16Zm13.38,0h3.93a2.15,2.15,0,0,1,2.16,2.16v3.93a2.15,2.15,0,0,1-2.16,2.16h-3.93a2.15,2.15,0,0,1-2.16-2.16V84.22a2.15,2.15,0,0,1,2.16-2.16Zm13.39,0h3.92A2.16,2.16,0,0,1,124,84.22v3.93a2.16,2.16,0,0,1-2.17,2.16H118a2.16,2.16,0,0,1-2.17-2.16V84.22A2.16,2.16,0,0,1,118,82.06Zm13.38,0h3.93a2.15,2.15,0,0,1,2.16,2.16v3.93a2.15,2.15,0,0,1-2.16,2.16h-3.93a2.15,2.15,0,0,1-2.16-2.16V84.22a2.15,2.15,0,0,1,2.16-2.16Zm13.38,0h3.93a2.16,2.16,0,0,1,2.17,2.16v3.93a2.16,2.16,0,0,1-2.17,2.16h-3.93a2.16,2.16,0,0,1-2.16-2.16V84.22a2.16,2.16,0,0,1,2.16-2.16Zm13.39,0H162a2.15,2.15,0,0,1,2.16,2.16v3.93A2.15,2.15,0,0,1,162,90.31H158.1a2.15,2.15,0,0,1-2.16-2.16V84.22a2.15,2.15,0,0,1,2.16-2.16Zm13.38,0h3.93a2.15,2.15,0,0,1,2.16,2.16v3.93a2.15,2.15,0,0,1-2.16,2.16h-3.93a2.15,2.15,0,0,1-2.16-2.16V84.22a2.15,2.15,0,0,1,2.16-2.16Zm14.14,0h10a2.16,2.16,0,0,1,2.17,2.16v3.93a2.16,2.16,0,0,1-2.17,2.16h-10a2.15,2.15,0,0,1-2.16-2.16V84.22a2.15,2.15,0,0,1,2.16-2.16ZM11.52,94.61h6.09a2.16,2.16,0,0,1,2.16,2.16v3.93a2.15,2.15,0,0,1-2.16,2.16H11.52a2.15,2.15,0,0,1-2.16-2.16V96.77A2.16,2.16,0,0,1,11.52,94.61Zm15.83,0h3.93a2.16,2.16,0,0,1,2.16,2.16v3.93a2.15,2.15,0,0,1-2.16,2.16H27.35a2.15,2.15,0,0,1-2.16-2.16V96.77A2.16,2.16,0,0,1,27.35,94.61Zm13.67,0h3.92a2.17,2.17,0,0,1,2.17,2.16v3.93a2.16,2.16,0,0,1-2.17,2.16H41a2.16,2.16,0,0,1-2.17-2.16V96.77A2.17,2.17,0,0,1,41,94.61Zm13.66,0h3.93a2.16,2.16,0,0,1,2.16,2.16v3.93a2.15,2.15,0,0,1-2.16,2.16H54.68a2.15,2.15,0,0,1-2.16-2.16V96.77A2.16,2.16,0,0,1,54.68,94.61Zm13.67,0h3.93a2.16,2.16,0,0,1,2.16,2.16v3.93a2.15,2.15,0,0,1-2.16,2.16H68.35a2.15,2.15,0,0,1-2.16-2.16V96.77A2.16,2.16,0,0,1,68.35,94.61Zm13.67,0H86a2.16,2.16,0,0,1,2.16,2.16v3.93A2.16,2.16,0,0,1,86,102.86H82a2.16,2.16,0,0,1-2.17-2.16V96.77A2.17,2.17,0,0,1,82,94.61Zm13.66,0h3.93a2.16,2.16,0,0,1,2.16,2.16v3.93a2.15,2.15,0,0,1-2.16,2.16H95.68a2.16,2.16,0,0,1-2.16-2.16V96.77A2.16,2.16,0,0,1,95.68,94.61Zm13.67,0h3.93a2.16,2.16,0,0,1,2.16,2.16v3.93a2.15,2.15,0,0,1-2.16,2.16h-3.93a2.15,2.15,0,0,1-2.16-2.16V96.77A2.16,2.16,0,0,1,109.35,94.61Zm13.67,0H127a2.16,2.16,0,0,1,2.16,2.16v3.93a2.16,2.16,0,0,1-2.16,2.16H123a2.16,2.16,0,0,1-2.17-2.16V96.77A2.17,2.17,0,0,1,123,94.61Zm13.66,0h3.93a2.16,2.16,0,0,1,2.16,2.16v3.93a2.15,2.15,0,0,1-2.16,2.16h-3.93a2.15,2.15,0,0,1-2.16-2.16V96.77A2.16,2.16,0,0,1,136.68,94.61Zm13.67,0h3.93a2.16,2.16,0,0,1,2.16,2.16v3.93a2.15,2.15,0,0,1-2.16,2.16h-3.93a2.15,2.15,0,0,1-2.16-2.16V96.77A2.16,2.16,0,0,1,150.35,94.61Zm13.67,0H168a2.16,2.16,0,0,1,2.16,2.16v3.93a2.16,2.16,0,0,1-2.16,2.16H164a2.16,2.16,0,0,1-2.17-2.16V96.77A2.17,2.17,0,0,1,164,94.61Zm13.66,0h3.93a2.16,2.16,0,0,1,2.16,2.16v3.93a2.15,2.15,0,0,1-2.16,2.16h-3.93a2.16,2.16,0,0,1-2.16-2.16V96.77A2.16,2.16,0,0,1,177.68,94.61Zm14,0h3.93a2.17,2.17,0,0,1,2.17,2.16v3.93a2.16,2.16,0,0,1-2.17,2.16h-3.93a2.16,2.16,0,0,1-2.16-2.16V96.77A2.16,2.16,0,0,1,191.67,94.61ZM11.52,107.16h10a2.16,2.16,0,0,1,2.16,2.17v3.93a2.16,2.16,0,0,1-2.16,2.16h-10a2.16,2.16,0,0,1-2.16-2.16v-3.93A2.16,2.16,0,0,1,11.52,107.16Zm20,0h3.93a2.16,2.16,0,0,1,2.16,2.17v3.93a2.16,2.16,0,0,1-2.16,2.16H31.51a2.16,2.16,0,0,1-2.16-2.16v-3.93A2.17,2.17,0,0,1,31.51,107.16Zm13.94,0h3.93a2.17,2.17,0,0,1,2.17,2.17v3.93a2.17,2.17,0,0,1-2.17,2.16H45.45a2.16,2.16,0,0,1-2.16-2.16v-3.93A2.17,2.17,0,0,1,45.45,107.16Zm13.95,0h3.93a2.17,2.17,0,0,1,2.16,2.17v3.93a2.16,2.16,0,0,1-2.16,2.16H59.4a2.17,2.17,0,0,1-2.17-2.16v-3.93A2.17,2.17,0,0,1,59.4,107.16Zm13.94,0h3.93a2.17,2.17,0,0,1,2.16,2.17v3.93a2.16,2.16,0,0,1-2.16,2.16H73.34a2.16,2.16,0,0,1-2.16-2.16v-3.93A2.16,2.16,0,0,1,73.34,107.16Zm13.94,0h3.93a2.16,2.16,0,0,1,2.16,2.17v3.93a2.16,2.16,0,0,1-2.16,2.16H87.28a2.16,2.16,0,0,1-2.16-2.16v-3.93A2.16,2.16,0,0,1,87.28,107.16Zm13.94,0h3.93a2.16,2.16,0,0,1,2.16,2.17v3.93a2.16,2.16,0,0,1-2.16,2.16h-3.93a2.16,2.16,0,0,1-2.16-2.16v-3.93A2.16,2.16,0,0,1,101.22,107.16Zm13.94,0h3.93a2.16,2.16,0,0,1,2.16,2.17v3.93a2.16,2.16,0,0,1-2.16,2.16h-3.93a2.16,2.16,0,0,1-2.16-2.16v-3.93A2.16,2.16,0,0,1,115.16,107.16Zm13.94,0H133a2.16,2.16,0,0,1,2.16,2.17v3.93a2.16,2.16,0,0,1-2.16,2.16H129.1a2.16,2.16,0,0,1-2.16-2.16v-3.93A2.16,2.16,0,0,1,129.1,107.16Zm13.94,0H147a2.16,2.16,0,0,1,2.16,2.17v3.93a2.16,2.16,0,0,1-2.16,2.16H143a2.16,2.16,0,0,1-2.16-2.16v-3.93A2.17,2.17,0,0,1,143,107.16Zm13.94,0h3.93a2.17,2.17,0,0,1,2.17,2.17v3.93a2.17,2.17,0,0,1-2.17,2.16H157a2.16,2.16,0,0,1-2.16-2.16v-3.93A2.17,2.17,0,0,1,157,107.16Zm14,0h3.93a2.17,2.17,0,0,1,2.16,2.17v3.93a2.16,2.16,0,0,1-2.16,2.16h-3.93a2.17,2.17,0,0,1-2.17-2.16v-3.93A2.17,2.17,0,0,1,170.93,107.16Zm14.69,0h10a2.17,2.17,0,0,1,2.17,2.17v3.93a2.17,2.17,0,0,1-2.17,2.16h-10a2.16,2.16,0,0,1-2.16-2.16v-3.93A2.16,2.16,0,0,1,185.62,107.16ZM11.52,119.72h15.6a2.15,2.15,0,0,1,2.16,2.16v3.93A2.15,2.15,0,0,1,27.12,128H11.52a2.15,2.15,0,0,1-2.16-2.16v-3.93A2.15,2.15,0,0,1,11.52,119.72Zm25.47,0h3.93a2.16,2.16,0,0,1,2.16,2.16v3.93A2.16,2.16,0,0,1,40.92,128H37a2.15,2.15,0,0,1-2.16-2.16v-3.93A2.15,2.15,0,0,1,37,119.72Zm14.22,0h3.93a2.15,2.15,0,0,1,2.16,2.16v3.93A2.15,2.15,0,0,1,55.14,128H51.21a2.15,2.15,0,0,1-2.16-2.16v-3.93A2.15,2.15,0,0,1,51.21,119.72Zm14.23,0h3.93a2.15,2.15,0,0,1,2.16,2.16v3.93A2.15,2.15,0,0,1,69.37,128H65.44a2.15,2.15,0,0,1-2.16-2.16v-3.93A2.15,2.15,0,0,1,65.44,119.72Zm14.22,0h3.93a2.16,2.16,0,0,1,2.17,2.16v3.93A2.16,2.16,0,0,1,83.59,128H79.66a2.16,2.16,0,0,1-2.16-2.16v-3.93A2.16,2.16,0,0,1,79.66,119.72Zm14.23,0h3.93a2.15,2.15,0,0,1,2.16,2.16v3.93A2.15,2.15,0,0,1,97.82,128H93.89a2.15,2.15,0,0,1-2.16-2.16v-3.93A2.15,2.15,0,0,1,93.89,119.72Zm14.23,0h3.93a2.16,2.16,0,0,1,2.16,2.16v3.93a2.16,2.16,0,0,1-2.16,2.16h-3.93a2.16,2.16,0,0,1-2.17-2.16v-3.93A2.16,2.16,0,0,1,108.12,119.72Zm14.22,0h3.93a2.16,2.16,0,0,1,2.17,2.16v3.93a2.16,2.16,0,0,1-2.17,2.16h-3.93a2.16,2.16,0,0,1-2.16-2.16v-3.93A2.16,2.16,0,0,1,122.34,119.72Zm14.23,0h3.93a2.15,2.15,0,0,1,2.16,2.16v3.93A2.15,2.15,0,0,1,140.5,128h-3.93a2.15,2.15,0,0,1-2.16-2.16v-3.93A2.15,2.15,0,0,1,136.57,119.72Zm14.23,0h3.93a2.16,2.16,0,0,1,2.16,2.16v3.93a2.16,2.16,0,0,1-2.16,2.16H150.8a2.16,2.16,0,0,1-2.17-2.16v-3.93A2.16,2.16,0,0,1,150.8,119.72Zm14.22,0H169a2.15,2.15,0,0,1,2.16,2.16v3.93A2.15,2.15,0,0,1,169,128H165a2.15,2.15,0,0,1-2.16-2.16v-3.93A2.15,2.15,0,0,1,165,119.72Zm15,0h15.6a2.16,2.16,0,0,1,2.17,2.16v3.93A2.16,2.16,0,0,1,195.6,128H180a2.15,2.15,0,0,1-2.16-2.16v-3.93A2.15,2.15,0,0,1,180,119.72ZM11.52,132.27h8.25a2.16,2.16,0,0,1,2.16,2.16v3.93a2.15,2.15,0,0,1-2.16,2.16H11.52a2.15,2.15,0,0,1-2.16-2.16v-3.93A2.16,2.16,0,0,1,11.52,132.27Zm17.1,0h8.26A2.16,2.16,0,0,1,39,134.43v3.93a2.16,2.16,0,0,1-2.16,2.16H28.62a2.16,2.16,0,0,1-2.16-2.16v-3.93A2.16,2.16,0,0,1,28.62,132.27Zm17,0h8.25A2.16,2.16,0,0,1,56,134.43v3.93a2.15,2.15,0,0,1-2.16,2.16H45.59a2.15,2.15,0,0,1-2.16-2.16v-3.93A2.16,2.16,0,0,1,45.59,132.27Zm17,0H144.3a2.16,2.16,0,0,1,2.16,2.16v3.93a2.15,2.15,0,0,1-2.16,2.16H62.56a2.15,2.15,0,0,1-2.16-2.16v-3.93A2.16,2.16,0,0,1,62.56,132.27Zm90.45,0h8.26a2.16,2.16,0,0,1,2.16,2.16v3.93a2.16,2.16,0,0,1-2.16,2.16H153a2.16,2.16,0,0,1-2.16-2.16v-3.93A2.16,2.16,0,0,1,153,132.27Zm17,0h8.25a2.16,2.16,0,0,1,2.16,2.16v3.93a2.15,2.15,0,0,1-2.16,2.16H170a2.15,2.15,0,0,1-2.16-2.16v-3.93A2.16,2.16,0,0,1,170,132.27Zm17.37,0h8.25a2.17,2.17,0,0,1,2.17,2.16v3.93a2.16,2.16,0,0,1-2.17,2.16h-8.25a2.15,2.15,0,0,1-2.16-2.16v-3.93A2.16,2.16,0,0,1,187.35,132.27Z" transform="translate(26.07 21.31)"/></g><circle class="cls-2" cx="128.47" cy="128.47" r="126.47"/></svg>