<svg id="Layer_1" data-name="Layer 1" xmlns="http://www.w3.org/2000/svg" viewBox="0 0 28.3 28.07"><defs><style>.cls-1{fill:none;}.cls-1,.cls-2{stroke:#000;stroke-miterlimit:10;stroke-width:0.75px;}.cls-2{fill:#fff;}</style></defs><title>sword2</title><path class="cls-1" d="M14.19,14.71" transform="translate(-5.85 -5.19)"/><path class="cls-1" d="M21.24,10.24" transform="translate(-5.85 -5.19)"/><path class="cls-1" d="M25.81,14.71" transform="translate(-5.85 -5.19)"/><path class="cls-1" d="M18.76,8.49" transform="translate(-5.85 -5.19)"/><polygon class="cls-2" points="24.83 27.33 27.46 24.7 25.2 22.43 27.83 19.8 27.76 15.35 22.94 20.17 15.48 27.62 19.94 27.69 22.57 25.06 24.83 27.33"/><polygon class="cls-2" points="3.47 27.19 0.84 24.56 3.1 22.3 0.47 19.66 0.54 15.21 5.37 20.03 12.82 27.48 8.36 27.56 5.73 24.93 3.47 27.19"/><polygon class="cls-2" points="8.62 23.08 25.91 10.31 27.83 0.47 17.99 2.4 5.22 19.69 8.62 23.08"/><polygon class="cls-2" points="14.15 7.56 10.23 2.47 0.47 0.64 2.32 10.31 8.73 14.89 14.15 7.56"/><polygon class="cls-2" points="14.15 19 19.4 23.71 22.94 20.17 19.4 15.12 14.15 19"/><path class="cls-1" d="M20,6.25" transform="translate(-5.85 -5.19)"/><path class="cls-1" d="M20,6.25" transform="translate(-5.85 -5.19)"/></svg>