<svg id="Layer_1" data-name="Layer 1" xmlns="http://www.w3.org/2000/svg" viewBox="0 0 30.09 30.09"><defs><style>.cls-1,.cls-2{fill:none;}.cls-2{stroke:#000;stroke-miterlimit:10;stroke-width:0.75px;}</style></defs><title>sword</title><line class="cls-1" x1="6.1" y1="8.64" x2="4.99" y2="13.37"/><line class="cls-2" x1="2.26" y1="9.65" x2="0.37" y2="17.75"/><line class="cls-2" x1="4.21" y1="21.6" x2="0.37" y2="17.75"/><line class="cls-2" x1="3.29" y1="14.83" x2="2.26" y2="9.65"/><path class="cls-2" d="M3,25.1" transform="translate(0.32 -10.27)"/><path class="cls-2" d="M3,25.1,6.81,29,18.74,11.41" transform="translate(0.32 -10.27)"/><line class="cls-2" x1="19.06" y1="1.13" x2="29.72" y2="0.37"/><line class="cls-2" x1="1.91" y1="23.9" x2="4.21" y2="21.6"/><line class="cls-2" x1="4.05" y1="26.04" x2="1.91" y2="23.9"/><line class="cls-2" x1="20.44" y1="27.83" x2="12.34" y2="29.73"/><line class="cls-2" x1="8.49" y1="25.88" x2="12.34" y2="29.73"/><line class="cls-2" x1="15.26" y1="26.81" x2="20.44" y2="27.83"/><path class="cls-2" d="M14.94,37.08l-3.85-3.85L28.64,21.31" transform="translate(0.32 -10.27)"/><line class="cls-2" x1="28.96" y1="11.03" x2="29.72" y2="0.37"/><line class="cls-2" x1="6.19" y1="28.18" x2="8.49" y2="25.88"/><line class="cls-2" x1="4.05" y1="26.04" x2="6.19" y2="28.18"/></svg>