<?xml version="1.0" encoding="utf-8"?>
<!-- Generator: Adobe Illustrator 22.1.0, SVG Export Plug-In . SVG Version: 6.00 Build 0)  -->
<svg version="1.1" id="Layer_1" xmlns="http://www.w3.org/2000/svg" xmlns:xlink="http://www.w3.org/1999/xlink" x="0px" y="0px"
	 viewBox="0 0 28.3 28.1" style="enable-background:new 0 0 28.3 28.1;" xml:space="preserve">
<style type="text/css">
	.st0{fill:#FFFFFF;stroke:#000000;stroke-width:0.75;stroke-miterlimit:10;}
</style>
<title>sword2</title>
<path class="st0" d="M8.3,9.5"/>
<path class="st0" d="M15.4,5"/>
<path class="st0" d="M20,9.5"/>
<path class="st0" d="M12.9,3.3"/>
<polygon class="st0" points="24.8,27.3 27.5,24.7 25.2,22.4 27.8,19.8 27.8,15.4 22.9,20.2 15.5,27.6 19.9,27.7 22.6,25.1 "/>
<polygon class="st0" points="3.5,27.2 0.8,24.6 3.1,22.3 0.5,19.7 0.5,15.2 5.4,20 12.8,27.5 8.4,27.6 5.7,24.9 "/>
<polygon class="st0" points="8.6,23.1 25.9,10.3 27.8,0.5 18,2.4 5.2,19.7 "/>
<polygon class="st0" points="14.1,7.6 10.2,2.5 0.5,0.6 2.3,10.3 8.7,14.9 "/>
<polygon class="st0" points="14.1,19 19.4,23.7 22.9,20.2 19.4,15.1 "/>
<path class="st0" d="M14.1,1.1"/>
<path class="st0" d="M14.1,1.1"/>
<circle class="st0" cx="14.1" cy="13.5" r="8.4"/>
</svg>
